<svg xmlns="http://www.w3.org/2000/svg" viewBox="0 0 49.66 25.89"><defs><style>.cls-1{fill-rule:evenodd;}</style></defs><title>logo-depAsset 1</title><g id="Layer_2" data-name="Layer 2"><g id="Content"><g id="_Group_" data-name="&lt;Group&gt;"><path id="_Compound_Path_" data-name="&lt;Compound Path&gt;" class="cls-1" d="M1.67,18.68c2.07,0,5.09.27,6.19.27,3.76,0,6.38-.86,8.77-2.86a9.94,9.94,0,0,0,4.11-8.34c0-1.88,0-7.75-9.45-7.75A32.38,32.38,0,0,0,7.78.21C6.58.32,5.1.38,4.06.38c-.51,0-1,0-1.44,0L1.16.27V.54c1.43.14,1.49,1.87,1.49,8a18.23,18.23,0,0,1-2.2-.09A10.11,10.11,0,0,1,0,10.22a20.19,20.19,0,0,1,2.65-.15c0,6,0,8.26-1.49,8.34v.27Zm6.94-8.61c.74,0,1.46,0,2.2.12.12-.45.3-1.2.46-1.7-.46.06-2,.09-2.69.09H7.06a61,61,0,0,1,.15-6.82,8.5,8.5,0,0,1,2.44-.42C14,1.34,16,4.73,16,9.48c0,3.29-1,6-2.36,7.06a4.62,4.62,0,0,1-2.53.62c-2.05,0-3.15-.39-3.87-1.05-.06-1-.15-3.48-.15-6Z"/><path id="_Compound_Path_2" data-name="&lt;Compound Path&gt;" class="cls-1" d="M34.32,10.82c0-1.79-.27-6.27-5.45-6.27-3.68,0-7.58,2.51-7.58,7,0,.87.24,7.39,7.84,7.39.36,0,.72,0,1.07,0a12.49,12.49,0,0,1,4.05-3.42,3.21,3.21,0,0,1-.27-.68,5.47,5.47,0,0,1-3.06.86c-4.62,0-5-3.31-5.16-4.85Zm-8.56-.9c0-.57,0-4.17,2-4.17s2.41,2.59,2.41,3.67c0,.44-.12.5-.44.5Z"/><path id="_Compound_Path_3" data-name="&lt;Compound Path&gt;" class="cls-1" d="M33.86,25.89c1.17-.09,2.41-.12,3.58-.12s2.5,0,3.69.12v-.18c-.93-.26-1.28-.54-1.28-3.4V18.8c2.2,0,9.81-1.4,9.81-8.38,0-3.45-2.18-5.87-5.37-5.87A5.12,5.12,0,0,0,43,4.71a10.19,10.19,0,0,1-3.1,2.85c0-.68.12-2.47.18-3a25.23,25.23,0,0,1-4.44.28H34.37V5c1.3.23,1.3,1.57,1.3,5.87,0,11.79,0,14.51-1.81,14.83Zm6-9.08c0-8.17,0-9,1.93-9,3.22,0,3.39,2.35,3.39,4.93s-.52,4.54-3.05,4.54a5.13,5.13,0,0,1-2.27-.5"/><path id="_Path_" data-name="&lt;Path&gt;" class="cls-1" d="M28,23.76A1.73,1.73,0,0,0,29.76,22,1.76,1.76,0,0,0,28,20.27a1.75,1.75,0,0,0,0,3.49"/></g></g></g></svg>